<?xml version="1.0"?>
<svg version="1.1" xmlns="http://www.w3.org/2000/svg" width="300" height="50" style="border: dashed 2px #aaa"><path fill="#0c171f" d="M38.76,41.56l0-18l-1.08,2.7l-5.58,11.34l-2.88,0.18l-5.58-11.7l-0.9-2.52l0,18l3.42,0.72l0,2.16l-9.72,0l0-2.16l3.06-0.72l0-19.44l-3.06-0.72l0-1.98l8.1-0.18l6.516,14.4l6.804-14.22l7.56-0.18l0,2.16l-3.06,0.72l0,19.44l3.06,0.72l0,2.16l-10.08,0l0-2.16z M52.2096,30.94l-0.18-4.5s3.96-1.44,7.02-1.44c4.176,0,6.66,1.44,6.66,5.58l0,10.98l2.88,0.72l0,1.98l-5.58,0.18l-0.756-2.52c-1.224,1.224-3.384,2.88-5.904,2.88c-3.42,0-5.4-1.98-5.4-5.4c0-4.14,3.24-5.58,8.28-5.58l2.88,0l0-2.88c0-2.16-1.26-3.24-3.42-3.24s-3.636,0.54-3.636,0.54l-0.504,2.7l-2.34,0z M62.1096,36.16l-2.52,0c-3.6,0-4.968,0.9-4.968,3.06c0,1.62,1.008,2.7,2.628,2.7c2.7,0,4.86-2.88,4.86-2.88l0-2.88z M79.5192,25.36l0.324,2.628c0.9-1.008,2.988-2.988,5.436-2.988c1.8,0,3.24,0.54,3.24,0.54l-0.18,5.22l-2.34,0l-0.54-2.7c-2.7,0-4.428,1.764-5.22,2.808l0,10.692l3.6,0.9l0,1.98l-10.26,0l0-1.98l3.06-0.9l0-13.32l-3.06-0.72l0-1.98z M104.4888,25.54l0,2.7l-5.22,0l0,11.556c0,1.656,0.792,2.196,1.8,2.196c0.864,0,1.872-0.396,2.808-0.9l0.972,1.908c-1.62,1.188-3.24,1.8-5.04,1.8c-2.16,0-4.14-1.188-4.14-5.22l0-11.34l-3.6,0l0-2.34l3.6-0.36l0-4.536l3.6-0.72l0,5.256l5.22,0z M111.8184,19.42c0-1.62,1.08-2.52,2.34-2.52c1.44,0,2.34,0.72,2.34,2.52c0,1.62-1.26,2.52-2.34,2.52c-1.44,0-2.34-0.9-2.34-2.52z M118.8384,42.46l0,1.98l-9.36,0l0-1.98l3.06-0.9l0-13.32l-3.06-0.72l0-1.98l6.66-0.18l0,16.2z M129.948,25.36l0.324,2.556c0.864-0.756,3.708-2.916,6.696-2.916c3.96,0,5.76,2.52,5.76,6.48l0,10.08l2.7,0.9l0,1.98l-8.64,0l0-1.98l2.34-0.9l0-9.72c0-2.52-0.9-3.78-3.24-3.78c-3.06,0-5.22,2.88-5.22,2.88l0,10.62l2.34,0.9l0,1.98l-9,0l0-1.98l3.06-0.9l0-13.32l-3.06-0.72l0-1.98z M153.1536,38.68l0.396,3.096s1.08,0.324,3.024,0.324c2.16,0,4.068-0.612,4.068-2.844c0-3.888-10.044-2.088-10.044-8.64c0-3.744,2.88-5.616,6.588-5.616c2.844,0,6.156,1.08,6.156,1.08l-0.108,4.86l-2.34,0l-0.576-2.808s-1.116-0.432-2.916-0.432c-1.836,0-3.204,0.576-3.204,2.412c0,3.852,10.044,2.376,10.044,8.532c0,4.14-3.6,6.156-7.92,6.156c-3.312,0-5.688-0.792-5.688-0.792l0-5.328l2.52,0z"/><path fill="#" d="M173.8673328125,31.1962890625q0-1.9072265625,0.17138671875-3.81884765625t0.71630859375-3.76611328125q0.158203125-0.5537109375,0.4130859375-1.09423828125t0.6240234375-0.96240234375t0.87890625-0.685546875t1.212890625-0.263671875l0.1845703125,0.017578125q0.755859375,0.10546875,1.1162109375,0.61083984375t0.3603515625,1.26123046875q0,0.2021484375-0.04833984375,0.50537109375t-0.15380859375,0.58447265625t-0.28564453125,0.47900390625t-0.45263671875,0.19775390625q-0.123046875-0.017578125-0.22412109375-0.0439453125t-0.18896484375-0.1142578125q0.140625-0.3076171875,0.25048828125-0.6416015625t0.10986328125-0.7646484375q0-0.158203125-0.0263671875-0.404296875t-0.10107421875-0.48779296875t-0.19775390625-0.421875t-0.3427734375-0.18017578125q-0.5537109375,0-0.931640625,0.61962890625t-0.6328125,1.58203125t-0.3779296875,2.126953125t-0.18896484375,2.25t-0.07470703125,1.9599609375t-0.0087890625,1.23486328125q0,0.421875-0.0087890625,0.931640625l0,0.1142578125q0.0087890625,0.4482421875,0.0615234375,0.8525390625q0.0703125,0.45703125,0.2724609375,0.791015625t0.6328125,0.38671875q0.1318359375,0.017578125,0.2548828125,0.017578125q0.509765625,0,0.9228515625-0.2900390625q0.509765625-0.3603515625,0.9052734375-0.93603515625t0.703125-1.265625t0.56689453125-1.30517578125t0.50537109375-1.01953125t0.509765625-0.404296875q0.087890625,0,0.263671875,0.03515625t0.17578125,0.1669921875q0,0.03515625-0.017578125,0.0966796875t-0.0439453125,0.0966796875q-0.2373046875,0.931640625-0.60205078125,1.93359375t-0.931640625,1.82373046875t-1.388671875,1.34033203125t-1.97314453125,0.5185546875q-0.826171875,0-1.34033203125-0.31201171875t-0.791015625-0.8349609375t-0.3779296875-1.18212890625t-0.10107421875-1.3359375z M183.23357304687,30.5107421875q0-0.80859375,0.18896484375-1.58642578125t0.32080078125-1.55126953125q0.03515625-0.2021484375,0.27685546875-0.25048828125t0.40869140625-0.04833984375q0.2900390625,0,0.4658203125,0.087890625q0.0703125,0.03515625,0.1318359375,0.0791015625t0.0615234375,0.1142578125q0,0.755859375-0.18017578125,1.4765625t-0.18017578125,1.529296875q0,0.2724609375,0.03955078125,0.51416015625t0.07470703125,0.47900390625l0.052734375,0.2548828125q0,0.0703125,0.0087890625,0.123046875t0.0263671875,0.123046875q0,0.158203125-0.22412109375,0.21533203125t-0.39111328125,0.05712890625q-0.2548828125,0-0.47021484375-0.10107421875t-0.33837890625-0.34716796875l-0.123046875-0.2548828125q-0.10546875-0.2021484375-0.10546875-0.45263671875t-0.0439453125-0.46142578125z M183.79607304687,25.2197265625l0-0.1669921875q0-0.4130859375,0.20654296875-0.73828125t0.61962890625-0.3251953125q0.052734375,0,0.10107421875,0.0087890625t0.10107421875,0.0087890625q0.10546875,0.017578125,0.27685546875,0.08349609375t0.17138671875,0.20654296875l0,0.017578125q-0.03515625,0.0703125-0.0439453125,0.14501953125t-0.0439453125,0.12744140625l0.017578125-0.017578125q-0.10546875,0.2724609375-0.17138671875,0.439453125t-0.14501953125,0.26806640625t-0.19775390625,0.14501953125t-0.33837890625,0.0439453125q-0.03515625,0-0.123046875-0.0087890625t-0.18896484375-0.03515625t-0.17138671875-0.0703125t-0.0703125-0.1318359375z M187.07149296875,33.841796875q0-0.2548828125,0.02197265625-0.5361328125t0.03955078125-0.52734375l0.052734375-1.318359375q0.087890625-1.58203125,0.21533203125-3.111328125t0.21533203125-3.09375q0.052734375-0.861328125,0.0791015625-1.69189453125t0.0791015625-1.69189453125q-0.03515625-0.0703125-0.03515625-0.0966796875q0-0.123046875,0.09228515625-0.193359375t0.21533203125-0.11865234375t0.25927734375-0.06591796875t0.20654296875-0.017578125l0.2021484375,0q0.2724609375,0.03515625,0.3955078125,0.17138671875t0.158203125,0.3251953125t0.017578125,0.404296875t-0.017578125,0.39990234375q0,1.2744140625-0.0615234375,2.59716796875t-0.140625,2.654296875t-0.14501953125,2.6630859375t-0.06591796875,2.63232421875l0,0.615234375q0,0.4130859375-0.23291015625,0.544921875t-0.64599609375,0.1318359375q-0.3603515625,0-0.6328125-0.158203125t-0.2724609375-0.5185546875z M190.74242070312,27.4521484375q0-0.0703125,0.08349609375-0.12744140625t0.18896484375-0.08349609375t0.21533203125-0.03515625t0.16259765625-0.0087890625q0.3955078125,0,0.6767578125,0.3515625t0.48779296875,0.90087890625t0.3515625,1.212890625t0.27685546875,1.32275390625t0.25927734375,1.20849609375t0.28564453125,0.84814453125q0.2724609375-0.5361328125,0.49658203125-1.2919921875t0.4130859375-1.564453125t0.333984375-1.59521484375t0.23291015625-1.37548828125q0.03515625-0.158203125,0.2197265625-0.19775390625t0.3076171875-0.03955078125q0.2021484375,0,0.3515625,0.05712890625t0.1494140625,0.25048828125q0,0.3251953125-0.0791015625,0.88330078125t-0.21533203125,1.25244140625t-0.31640625,1.423828125t-0.38671875,1.38427734375t-0.4306640625,1.16015625t-0.44384765625,0.71630859375q-0.10546875,0.123046875-0.32958984375,0.17138671875t-0.37353515625,0.04833984375q-0.5185546875,0-0.861328125-0.2724609375l0,0.017578125q-0.5361328125-0.5009765625-0.791015625-1.2216796875t-0.369140625-1.5029296875t-0.20654296875-1.5556640625t-0.31201171875-1.40625q-0.03515625-0.0703125-0.087890625-0.20654296875t-0.123046875-0.2724609375t-0.11865234375-0.25927734375t-0.04833984375-0.193359375z M197.674090625,31.08203125q0-0.615234375,0.13623046875-1.4501953125t0.46142578125-1.58203125t0.85693359375-1.27001953125t1.34033203125-0.52294921875q0.755859375,0,1.1337890625,0.43505859375t0.3779296875,1.17333984375q0,0.4833984375-0.18017578125,1.05908203125t-0.51416015625,1.08984375t-0.791015625,0.85693359375t-1.01953125,0.3427734375l-0.228515625-0.017578125q0,0.2373046875,0.0703125,0.63720703125t0.20654296875,0.79541015625t0.3515625,0.6943359375t0.52294921875,0.298828125q0.4482421875,0,0.861328125-0.3603515625t0.7822265625-0.7998046875t0.685546875-0.7998046875t0.580078125-0.3603515625q0.140625,0,0.2900390625,0.0439453125t0.1669921875,0.24609375q0,0.123046875-0.06591796875,0.2021484375t-0.11865234375,0.17578125q-0.2724609375,0.4658203125-0.59326171875,0.8876953125t-0.72509765625,0.7646484375t-0.88330078125,0.54052734375t-1.05908203125,0.19775390625q-0.755859375,0-1.2568359375-0.26806640625t-0.80859375-0.720703125t-0.44384765625-1.0458984375t-0.13623046875-1.24365234375z M199.2473328125,30.4140625l0.24609375,0.2197265625q0.17578125,0.158203125,0.3515625,0.0703125t0.31640625-0.32080078125t0.25927734375-0.57568359375t0.2109375-0.703125t0.13623046875-0.703125t0.0439453125-0.5712890625l0-0.298828125t-0.0263671875-0.31640625t-0.09228515625-0.25048828125t-0.20654296875-0.12744140625q-0.0439453125-0.0087890625-0.0791015625-0.0087890625q-0.298828125,0-0.509765625,0.3779296875q-0.228515625,0.421875-0.369140625,1.02392578125t-0.2021484375,1.23486328125t-0.0791015625,0.94921875z M205.01884648437,34.2900390625l0.1845703125-0.2197265625q-0.03515625-1.4765625-0.0791015625-2.9443359375t-0.0439453125-2.91796875q0-1.8017578125,0.21533203125-3.48486328125t0.42626953125-3.44970703125q0.017578125-0.10546875,0.10107421875-0.17138671875t0.20654296875-0.10986328125t0.25048828125-0.0615234375t0.23291015625-0.017578125q0.140625,0,0.3515625,0.052734375t0.421875,0.3076171875q0,0.087890625,0.01318359375,0.15380859375t0.01318359375,0.15380859375q0,0.66796875-0.18017578125,1.4326171875t-0.24169921875,1.4677734375q-0.0703125,0.861328125-0.0966796875,1.705078125t-0.0263671875,1.7138671875l0.017578125,0.7734375q0.17578125-0.2197265625,0.5009765625-0.5625t0.703125-0.66357421875t0.755859375-0.54931640625t0.685546875-0.228515625q0.4658203125,0,0.64599609375,0.263671875t0.18017578125,0.6943359375q0,0.3955078125-0.17138671875,0.826171875t-0.4482421875,0.83935546875t-0.62841796875,0.73388671875t-0.6943359375,0.4833984375q0.4658203125,0.580078125,0.95361328125,1.107421875t1.06787109375,0.9931640625l0,0.2021484375q-0.017578125,0.087890625-0.10986328125,0.1318359375t-0.2021484375,0.0703125t-0.21533203125,0.03955078125t-0.17578125,0.01318359375q-0.4306640625,0-0.83056640625-0.2548828125t-0.7470703125-0.6240234375t-0.65478515625-0.7822265625t-0.5625-0.720703125q0.052734375,1.0107421875,0.11865234375,2.01708984375t0.06591796875,2.01708984375q0,0.123046875-0.10986328125,0.20654296875t-0.2548828125,0.12744140625t-0.29443359375,0.0615234375t-0.24609375,0.017578125q-0.5185546875,0-0.73388671875-0.18896484375t-0.36474609375-0.65478515625z M206.82060429687,30.150390625q0.2197265625,0,0.52294921875-0.18896484375t0.62841796875-0.47021484375t0.6064453125-0.59326171875t0.45263671875-0.59326171875t0.17138671875-0.45263671875t-0.2373046875-0.15380859375q-0.087890625,0-0.3603515625,0.2548828125t-0.6064453125,0.6240234375t-0.66796875,0.7998046875t-0.509765625,0.7734375z M212.13508671875,28.4541015625q0-0.3603515625,0.2109375-0.61962890625t0.51416015625-0.421875t0.66357421875-0.24169921875t0.66796875-0.0791015625q0.2373046875,0,0.6328125,0.0703125t0.7734375,0.2109375t0.65478515625,0.369140625t0.27685546875,0.5361328125q0,0.140625-0.10546875,0.25048828125t-0.2197265625,0.10986328125q-0.2373046875,0-0.4306640625-0.15380859375t-0.39990234375-0.3251953125t-0.45263671875-0.3251953125t-0.5537109375-0.15380859375t-0.55810546875,0.19775390625t-0.25048828125,0.52294921875q0,0.5361328125,0.3779296875,1.05029296875t0.83056640625,1.0810546875t0.83056640625,1.19091796875t0.3779296875,1.3798828125q0,0.3251953125-0.13623046875,0.54931640625t-0.3603515625,0.36474609375t-0.50537109375,0.21533203125t-0.544921875,0.07470703125q-0.2900390625,0-0.6767578125-0.13623046875t-0.7294921875-0.3603515625t-0.57568359375-0.52294921875t-0.23291015625-0.6240234375q0-0.158203125,0.22412109375-0.2021484375t0.32958984375-0.0439453125q0.052734375,0,0.16259765625,0.03515625t0.21533203125,0.0791015625t0.18896484375,0.0966796875t0.06591796875,0.1142578125q0.087890625,0.10546875,0.26806640625,0.31201171875t0.3603515625,0.333984375t0.31640625,0.09228515625t0.13623046875-0.3955078125q0-0.685546875-0.369140625-1.26123046875t-0.80419921875-1.125t-0.80419921875-1.08984375t-0.369140625-1.15576171875z M221.7708875,32.576171875q-0.0087890625-0.263671875-0.0087890625-0.52734375q0-0.826171875,0.087890625-1.6611328125q0.10546875-1.107421875,0.140625-2.1796875q0.03515625-1.2568359375,0.10546875-2.6103515625q0.0439453125-0.73828125,0.0439453125-1.458984375q0-0.5888671875-0.0263671875-1.1689453125q0.087890625-0.2021484375,0.23291015625-0.2724609375t0.36474609375-0.0703125q0.10546875,0,0.22412109375,0.017578125t0.20654296875,0.087890625q0.123046875,0.017578125,0.30322265625,0.03515625t0.27685546875,0.10546875q0.03515625,0.052734375,0.18017578125,0.3603515625t0.3427734375,0.7470703125t0.4130859375,0.95361328125t0.4130859375,0.9755859375t0.3427734375,0.81298828125t0.18017578125,0.439453125q0.826171875-1.494140625,1.6171875-3.07177734375t1.7314453125-2.97509765625q0.087890625-0.123046875,0.30322265625-0.18017578125t0.35595703125-0.05712890625q0.3779296875,0,0.54931640625,0.18017578125t0.22412109375,0.46142578125q0.03515625,0.17578125,0.0439453125,0.3779296875q0.0087890625,0.10546875-0.0087890625,0.2197265625q-0.03515625,0.3251953125-0.03515625,0.615234375q0,2.0478515625-0.140625,4.06494140625t-0.2548828125,4.07373046875q-0.017578125,0.421875-0.017578125,0.87890625t0.017578125,0.94921875q0.0087890625,0.17578125,0.0087890625,0.3427734375q0,0.7734375-0.1318359375,1.44140625q-0.123046875,0.2021484375-0.404296875,0.2548828125t-0.474609375,0.052734375q-0.4130859375,0-0.791015625-0.193359375l-0.0966796875-0.1142578125l-0.03515625-0.140625t-0.017578125-0.140625q0-1.2744140625,0.09228515625-2.56640625t0.20654296875-2.57958984375t0.24169921875-2.57080078125t0.21533203125-2.56640625q-0.5185546875,0.861328125-1.00634765625,1.75341796875t-0.91845703125,1.81494140625q-0.158203125,0.3603515625-0.30322265625,0.7734375t-0.34716796875,0.73828125q-0.10546875,0.158203125-0.35595703125,0.193359375t-0.43505859375,0.03515625q-0.17578125,0-0.36474609375-0.0615234375t-0.25927734375-0.263671875q-0.3251953125-0.9931640625-0.6943359375-1.9423828125t-0.7470703125-1.9248046875q0,0.650390625,0.0263671875,1.68310546875t0.0263671875,2.14013671875t-0.03515625,2.1181640625t-0.1669921875,1.599609375q-0.03515625,0.2197265625-0.28564453125,0.2724609375t-0.43505859375,0.052734375q-0.140625,0-0.26806640625-0.017578125t-0.25048828125-0.0703125z M232.20939335937,30.7216796875q0-0.59765625,0.16259765625-1.1513671875t0.48779296875-0.98876953125t0.81298828125-0.6943359375t1.12939453125-0.25927734375q0.3955078125,0,0.87451171875,0.11865234375t0.90087890625,0.3515625t0.703125,0.59326171875t0.28125,0.826171875q0,0.2197265625-0.07470703125,0.333984375t-0.30322265625,0.1142578125l-0.0966796875-0.017578125q0.2548828125,0.685546875,0.439453125,1.40625t0.3603515625,1.44140625q0.0703125,0.140625,0.10546875,0.25048828125t0.03515625,0.21533203125q0,0.140625-0.0791015625,0.23291015625t-0.20654296875,0.13623046875t-0.263671875,0.0615234375t-0.24169921875,0.017578125q-0.3779296875,0-0.56689453125-0.1318359375t-0.2724609375-0.3603515625t-0.10107421875-0.51416015625t-0.0703125-0.57568359375q-0.10546875,0.3427734375-0.27685546875,0.66796875t-0.404296875,0.58447265625t-0.54931640625,0.4130859375t-0.7119140625,0.15380859375q-0.580078125,0-0.9755859375-0.333984375t-0.63720703125-0.82177734375t-0.3515625-1.04150390625t-0.10986328125-1.0283203125z M233.45744023437,30.5986328125q0,0.3251953125,0.0439453125,0.685546875t0.14501953125,0.7119140625t0.25927734375,0.66357421875t0.3955078125,0.54931640625q0.4306640625-0.4658203125,0.63720703125-1.1337890625t0.369140625-1.28759765625t0.369140625-1.0634765625t0.63720703125-0.44384765625q0.2724609375,0,0.45703125,0.0966796875q-0.087890625-0.2197265625-0.2900390625-0.42626953125t-0.45263671875-0.3779296875t-0.5185546875-0.28125t-0.50537109375-0.10986328125q-0.0703125,0-0.16259765625,0.02197265625t-0.14501953125,0.00439453125q-0.3603515625,0.10546875-0.59326171875,0.36474609375t-0.3779296875,0.61083984375t-0.20654296875,0.720703125t-0.0615234375,0.6943359375z M239.82661015625,28.4541015625q0-0.3603515625,0.2109375-0.61962890625t0.51416015625-0.421875t0.66357421875-0.24169921875t0.66796875-0.0791015625q0.2373046875,0,0.6328125,0.0703125t0.7734375,0.2109375t0.65478515625,0.369140625t0.27685546875,0.5361328125q0,0.140625-0.10546875,0.25048828125t-0.2197265625,0.10986328125q-0.2373046875,0-0.4306640625-0.15380859375t-0.39990234375-0.3251953125t-0.45263671875-0.3251953125t-0.5537109375-0.15380859375t-0.55810546875,0.19775390625t-0.25048828125,0.52294921875q0,0.5361328125,0.3779296875,1.05029296875t0.83056640625,1.0810546875t0.83056640625,1.19091796875t0.3779296875,1.3798828125q0,0.3251953125-0.13623046875,0.54931640625t-0.3603515625,0.36474609375t-0.50537109375,0.21533203125t-0.544921875,0.07470703125q-0.2900390625,0-0.6767578125-0.13623046875t-0.7294921875-0.3603515625t-0.57568359375-0.52294921875t-0.23291015625-0.6240234375q0-0.158203125,0.22412109375-0.2021484375t0.32958984375-0.0439453125q0.052734375,0,0.16259765625,0.03515625t0.21533203125,0.0791015625t0.18896484375,0.0966796875t0.06591796875,0.1142578125q0.087890625,0.10546875,0.26806640625,0.31201171875t0.3603515625,0.333984375t0.31640625,0.09228515625t0.13623046875-0.3955078125q0-0.685546875-0.369140625-1.26123046875t-0.80419921875-1.125t-0.80419921875-1.08984375t-0.369140625-1.15576171875z M246.01999882812,30.5107421875q0-0.80859375,0.18896484375-1.58642578125t0.32080078125-1.55126953125q0.03515625-0.2021484375,0.27685546875-0.25048828125t0.40869140625-0.04833984375q0.2900390625,0,0.4658203125,0.087890625q0.0703125,0.03515625,0.1318359375,0.0791015625t0.0615234375,0.1142578125q0,0.755859375-0.18017578125,1.4765625t-0.18017578125,1.529296875q0,0.2724609375,0.03955078125,0.51416015625t0.07470703125,0.47900390625l0.052734375,0.2548828125q0,0.0703125,0.0087890625,0.123046875t0.0263671875,0.123046875q0,0.158203125-0.22412109375,0.21533203125t-0.39111328125,0.05712890625q-0.2548828125,0-0.47021484375-0.10107421875t-0.33837890625-0.34716796875l-0.123046875-0.2548828125q-0.10546875-0.2021484375-0.10546875-0.45263671875t-0.0439453125-0.46142578125z M246.58249882812,25.2197265625l0-0.1669921875q0-0.4130859375,0.20654296875-0.73828125t0.61962890625-0.3251953125q0.052734375,0,0.10107421875,0.0087890625t0.10107421875,0.0087890625q0.10546875,0.017578125,0.27685546875,0.08349609375t0.17138671875,0.20654296875l0,0.017578125q-0.03515625,0.0703125-0.0439453125,0.14501953125t-0.0439453125,0.12744140625l0.017578125-0.017578125q-0.10546875,0.2724609375-0.17138671875,0.439453125t-0.14501953125,0.26806640625t-0.19775390625,0.14501953125t-0.33837890625,0.0439453125q-0.03515625,0-0.123046875-0.0087890625t-0.18896484375-0.03515625t-0.17138671875-0.0703125t-0.0703125-0.1318359375z M249.8667078125,30.765625l0-0.2548828125q0-0.31640625,0.017578125-0.59765625q0.017578125-0.3955078125,0.017578125-0.650390625q0-0.140625,0.017578125-0.32080078125t0.087890625-0.28564453125q0.087890625-0.087890625,0.20654296875-0.18017578125t0.25927734375-0.09228515625q0.4482421875,0,0.703125,0.10107421875t0.2724609375,0.41748046875l0.03515625,0.2724609375q0.158203125-0.3779296875,0.421875-0.93603515625t0.61083984375-1.0634765625t0.7822265625-0.861328125t0.91845703125-0.35595703125q0.4482421875,0,0.73828125,0.421875t0.46142578125,1.07666015625t0.24169921875,1.458984375t0.0966796875,1.57763671875t0.03515625,1.41064453125t0.0615234375,0.96240234375q0.03515625,0.2724609375,0.11865234375,0.57568359375t0.08349609375,0.55810546875q0,0.0703125-0.10107421875,0.13623046875t-0.21533203125,0.10986328125t-0.23291015625,0.0703125t-0.17138671875,0.0263671875q-0.3427734375,0-0.48779296875-0.51416015625t-0.18017578125-1.28759765625t-0.03515625-1.67431640625t-0.0615234375-1.67431640625t-0.25048828125-1.28759765625t-0.60205078125-0.53173828125q-0.3779296875,0-0.7822265625,0.48779296875t-0.6943359375,1.29638671875q-0.28125,0.80859375-0.38671875,1.8369140625q-0.03515625,0.3251953125-0.03515625,0.650390625q0,0.7119140625,0.1494140625,1.423828125q0.017578125,0.123046875-0.10107421875,0.1845703125t-0.29443359375,0.0966796875t-0.35595703125,0.0439453125t-0.27685546875,0.0087890625q-0.3427734375,0-0.54931640625-0.24169921875t-0.32080078125-0.61962890625t-0.15380859375-0.84814453125t-0.04833984375-0.92724609375z M257.85306523437,30.7216796875q0-0.59765625,0.16259765625-1.1513671875t0.48779296875-0.98876953125t0.81298828125-0.6943359375t1.12939453125-0.25927734375q0.3955078125,0,0.87451171875,0.11865234375t0.90087890625,0.3515625t0.703125,0.59326171875t0.28125,0.826171875q0,0.2197265625-0.07470703125,0.333984375t-0.30322265625,0.1142578125l-0.0966796875-0.017578125q0.2548828125,0.685546875,0.439453125,1.40625t0.3603515625,1.44140625q0.0703125,0.140625,0.10546875,0.25048828125t0.03515625,0.21533203125q0,0.140625-0.0791015625,0.23291015625t-0.20654296875,0.13623046875t-0.263671875,0.0615234375t-0.24169921875,0.017578125q-0.3779296875,0-0.56689453125-0.1318359375t-0.2724609375-0.3603515625t-0.10107421875-0.51416015625t-0.0703125-0.57568359375q-0.10546875,0.3427734375-0.27685546875,0.66796875t-0.404296875,0.58447265625t-0.54931640625,0.4130859375t-0.7119140625,0.15380859375q-0.580078125,0-0.9755859375-0.333984375t-0.63720703125-0.82177734375t-0.3515625-1.04150390625t-0.10986328125-1.0283203125z M259.10111210937,30.5986328125q0,0.3251953125,0.0439453125,0.685546875t0.14501953125,0.7119140625t0.25927734375,0.66357421875t0.3955078125,0.54931640625q0.4306640625-0.4658203125,0.63720703125-1.1337890625t0.369140625-1.28759765625t0.369140625-1.0634765625t0.63720703125-0.44384765625q0.2724609375,0,0.45703125,0.0966796875q-0.087890625-0.2197265625-0.2900390625-0.42626953125t-0.45263671875-0.3779296875t-0.5185546875-0.28125t-0.50537109375-0.10986328125q-0.0703125,0-0.16259765625,0.02197265625t-0.14501953125,0.00439453125q-0.3603515625,0.10546875-0.59326171875,0.36474609375t-0.3779296875,0.61083984375t-0.20654296875,0.720703125t-0.0615234375,0.6943359375z"/></svg>
